<svg width="20" height="20" viewBox="0 0 20 20" fill="none" xmlns="http://www.w3.org/2000/svg">
<path d="M20 10C20 15.5228 15.5228 20 10 20C4.47719 20 0 15.5228 0 10C0 10.0023 10 0.00113281 10 0C15.5228 0 20 4.47719 20 10Z" fill="#0052B4"/>
<path d="M10.0028 0C10.0014 0 9.99994 0.0001 9.99854 0.0001L10.0028 0Z" fill="#F0F0F0"/>
<path d="M9.97314 10.0418H10.0416C10.0416 10.0186 10.0416 9.99637 10.0416 9.97327C10.0188 9.99617 9.99604 10.019 9.97314 10.0418Z" fill="#F0F0F0"/>
<path d="M10 5.21744C10 3.45787 10 2.30487 10 6.10352e-05H9.99832C4.47625 0.000959473 0 4.47772 0 10H5.21738V7.06205L8.15535 10H9.97328C9.98223 9.99112 9.99113 9.98221 10 9.97326C10 9.29955 10 8.69842 10 8.15545L7.06203 5.21744H10Z" fill="#F0F0F0"/>
<path d="M5.05904 1.30432C3.49502 2.19491 2.19479 3.49514 1.3042 5.05917V9.99999H3.91291V3.91307V3.91303H9.99986C9.99986 3.09026 9.99986 2.30643 9.99986 1.30432L5.05904 1.30432Z" fill="#D80027"/>
<path d="M9.99986 8.7703L6.44701 5.21749H5.21729C5.21729 5.21745 5.21729 5.21749 5.21729 5.21749L9.99982 10H9.99986C9.99986 10 9.99986 9.15217 9.99986 8.7703Z" fill="#D80027"/>
<path d="M6.03107 11.7391L6.5799 12.8867L7.81924 12.6003L7.26424 13.7449L8.26088 14.5352L7.01998 14.8149L7.02346 16.0869L6.03107 15.2911L5.03873 16.0869L5.04221 14.8149L3.80127 14.5352L4.79795 13.7449L4.24287 12.6003L5.48229 12.8867L6.03107 11.7391Z" fill="#F0F0F0"/>
<path d="M14.9718 13.913L15.2462 14.4868L15.8659 14.3436L15.5884 14.9159L16.0867 15.3111L15.4663 15.4509L15.468 16.0869L14.9718 15.689L14.4756 16.0869L14.4774 15.4509L13.8569 15.3111L14.3553 14.9159L14.0778 14.3436L14.6974 14.4868L14.9718 13.913Z" fill="#F0F0F0"/>
<path d="M12.4191 7.82611L12.6935 8.39994L13.3132 8.25666L13.0357 8.82896L13.534 9.22416L12.9136 9.364L12.9153 10L12.4191 9.60209L11.9229 10L11.9246 9.364L11.3042 9.22416L11.8025 8.82896L11.525 8.25666L12.1447 8.39994L12.4191 7.82611Z" fill="#F0F0F0"/>
<path d="M14.9718 4.34784L15.2462 4.92167L15.8659 4.77843L15.5884 5.35073L16.0867 5.74589L15.4663 5.88577L15.468 6.52178L14.9718 6.12385L14.4756 6.52178L14.4774 5.88577L13.8569 5.74589L14.3552 5.35073L14.0778 4.77843L14.6974 4.92167L14.9718 4.34784Z" fill="#F0F0F0"/>
<path d="M17.2018 6.95654L17.4762 7.53037L18.0959 7.38709L17.8184 7.95939L18.3167 8.35459L17.6962 8.49447L17.698 9.13045L17.2018 8.73256L16.7057 9.13045L16.7073 8.49447L16.0869 8.35459L16.5852 7.95939L16.3077 7.38709L16.9274 7.53037L17.2018 6.95654Z" fill="#F0F0F0"/>
<path d="M15.6072 10L15.823 10.6643H16.5215L15.9564 11.0749L16.1723 11.7391L15.6072 11.3286L15.0421 11.7391L15.2579 11.0749L14.6929 10.6643H15.3913L15.6072 10Z" fill="#F0F0F0"/>
</svg>
