<svg width="20" height="20" viewBox="0 0 20 20" fill="none" xmlns="http://www.w3.org/2000/svg">
<path d="M10 20C15.5228 20 20 15.5228 20 10C20 4.47715 15.5228 0 10 0C4.47715 0 0 4.47715 0 10C0 15.5228 4.47715 20 10 20Z" fill="#F0F0F0"/>
<path d="M9.99992 0C6.03531 0 2.60969 2.30723 0.992188 5.65219H19.0076C17.3902 2.30723 13.9645 0 9.99992 0Z" fill="#FF9811"/>
<path d="M9.99992 20C13.9645 20 17.3902 17.6928 19.0077 14.3478H0.992188C2.60969 17.6928 6.03531 20 9.99992 20Z" fill="#6DA544"/>
<path d="M10.0002 13.4782C11.9212 13.4782 13.4785 11.921 13.4785 9.99997C13.4785 8.07899 11.9212 6.52173 10.0002 6.52173C8.07923 6.52173 6.52197 8.07899 6.52197 9.99997C6.52197 11.921 8.07923 13.4782 10.0002 13.4782Z" fill="#0052B4"/>
<path d="M10.0001 12.1739C11.2007 12.1739 12.174 11.2006 12.174 10C12.174 8.7994 11.2007 7.82611 10.0001 7.82611C8.79946 7.82611 7.82617 8.7994 7.82617 10C7.82617 11.2006 8.79946 12.1739 10.0001 12.1739Z" fill="#F0F0F0"/>
<path d="M9.99992 7.31744L10.6706 8.83846L12.3231 8.65873L11.3412 10L12.3231 11.3413L10.6706 11.1616L9.99992 12.6826L9.32926 11.1616L7.67676 11.3413L8.65863 10L7.67676 8.65873L9.32926 8.83846L9.99992 7.31744Z" fill="#0052B4"/>
</svg>
