<svg width="20" height="20" viewBox="0 0 20 20" fill="none" xmlns="http://www.w3.org/2000/svg">
<path d="M10 20C15.5228 20 20 15.5228 20 10C20 4.47715 15.5228 0 10 0C4.47715 0 0 4.47715 0 10C0 15.5228 4.47715 20 10 20Z" fill="#F0F0F0"/>
<path d="M0 10C0 4.47719 4.47719 0 10 0C15.5228 0 20 4.47719 20 10" fill="#D80027"/>
<path d="M6.08709 5.21733C6.08709 3.76037 7.11104 2.54326 8.47838 2.24463C8.26822 2.19877 8.05021 2.17389 7.82619 2.17389C6.14529 2.17389 4.78271 3.53647 4.78271 5.21737C4.78271 6.89826 6.14529 8.26084 7.82619 8.26084C8.05014 8.26084 8.26818 8.23596 8.47838 8.19006C7.11104 7.89143 6.08709 6.67432 6.08709 5.21733Z" fill="#F0F0F0"/>
<path d="M10.0002 2.3913L10.2161 3.05555H10.9146L10.3495 3.46614L10.5653 4.1304L10.0002 3.71989L9.43516 4.1304L9.65102 3.46614L9.08594 3.05555H9.78438L10.0002 2.3913Z" fill="#F0F0F0"/>
<path d="M8.30549 3.69562L8.52131 4.35991H9.21979L8.65471 4.77046L8.87057 5.43472L8.30549 5.02421L7.74033 5.43472L7.95623 4.77046L7.39111 4.35991H8.08959L8.30549 3.69562Z" fill="#F0F0F0"/>
<path d="M11.6946 3.69562L11.9105 4.35991H12.6089L12.0438 4.77046L12.2597 5.43472L11.6946 5.02421L11.1295 5.43472L11.3454 4.77046L10.7803 4.35991H11.4787L11.6946 3.69562Z" fill="#F0F0F0"/>
<path d="M11.0422 5.65216L11.2581 6.31646H11.9565L11.3914 6.727L11.6073 7.39126L11.0422 6.98075L10.4771 7.39126L10.693 6.727L10.1279 6.31646H10.8263L11.0422 5.65216Z" fill="#F0F0F0"/>
<path d="M8.95779 5.65216L9.17361 6.31646H9.87213L9.30701 6.727L9.52291 7.39126L8.95779 6.98075L8.39268 7.39126L8.60854 6.727L8.04346 6.31646H8.74193L8.95779 5.65216Z" fill="#F0F0F0"/>
</svg>
