<svg width="20" height="20" viewBox="0 0 20 20" fill="none" xmlns="http://www.w3.org/2000/svg">
<path d="M10 20C15.5228 20 20 15.5228 20 10C20 4.47715 15.5228 0 10 0C4.47715 0 0 4.47715 0 10C0 15.5228 4.47715 20 10 20Z" fill="#FFDA44"/>
<path d="M7.82621 8.69566H19.9154C19.2763 3.78914 15.0808 0 10.0001 0C9.25344 0 8.52613 0.0825391 7.82617 0.237695V8.69566H7.82621Z" fill="#0052B4"/>
<path d="M5.21721 8.69561V1.21588C2.47135 2.71408 0.505684 5.46217 0.0844727 8.69565H5.21721V8.69561Z" fill="#0052B4"/>
<path d="M5.21717 11.3043H0.0844727C0.505684 14.5378 2.47135 17.2859 5.21721 18.784L5.21717 11.3043Z" fill="#0052B4"/>
<path d="M7.82617 11.3044V19.7623C8.52613 19.9174 9.25344 20 10.0001 20C15.0808 20 19.2763 16.2108 19.9154 11.3043H7.82617V11.3044Z" fill="#0052B4"/>
</svg>
