<svg width="20" height="20" viewBox="0 0 20 20" fill="none" xmlns="http://www.w3.org/2000/svg">
<path d="M10 20C15.5228 20 20 15.5228 20 10C20 4.47715 15.5228 0 10 0C4.47715 0 0 4.47715 0 10C0 15.5228 4.47715 20 10 20Z" fill="#F0F0F0"/>
<path d="M9.56543 10H20.0002C20.0002 9.09743 19.8799 8.22305 19.6557 7.3913H9.56543V10Z" fill="#D80027"/>
<path d="M9.56543 4.7826H18.5325C17.9203 3.78369 17.1376 2.90076 16.225 2.17389H9.56543V4.7826Z" fill="#D80027"/>
<path d="M10.0002 20C12.3537 20 14.5169 19.1866 16.2251 17.8261H3.77539C5.48359 19.1866 7.64676 20 10.0002 20Z" fill="#D80027"/>
<path d="M1.46797 15.2174H18.5325C19.0239 14.4154 19.4051 13.5389 19.6557 12.6086H0.344727C0.595391 13.5389 0.976523 14.4154 1.46797 15.2174Z" fill="#D80027"/>
<path fill-rule="evenodd" clip-rule="evenodd" d="M5.54348 1.56164H4.63219C6.18301 0.573047 8.02453 0 10 0V10H0C0 9.57769 0.0264844 9.1616 0.0773047 8.75309L0.585039 8.38418L1.43266 9L1.10887 8.00355L1.95652 7.38773H0.908789L0.624922 6.51398C0.723164 6.24973 0.832461 5.99086 0.951953 5.7377L1.43266 6.08695L1.175 5.29395C1.25227 5.14937 1.33289 5.00691 1.41695 4.86668L1.95652 4.47469H1.66453C2.20359 3.66313 2.85773 2.93477 3.60406 2.31309L3.32437 3.17391L4.17199 2.55809L5.01961 3.17391L4.69582 2.17746L5.54348 1.56164ZM4.17199 8.38418L5.01961 9L4.69582 8.00356L5.54348 7.38773H4.49574L4.17199 6.39129L3.84824 7.38773H2.80051L3.64816 8.00356L3.32437 9L4.17199 8.38418ZM4.69582 5.09051L5.01961 6.08695L4.17199 5.47113L3.32437 6.08695L3.64816 5.09051L2.80051 4.47469H3.84824L4.17199 3.47824L4.49574 4.47469H5.54348L4.69582 5.09051ZM7.75894 8.38418L8.60656 9L8.28277 8.00356L9.13043 7.38773H8.0827L7.75894 6.39129L7.43519 7.38773H6.38746L7.23512 8.00356L6.91133 9L7.75894 8.38418ZM8.28277 5.09051L8.60656 6.08695L7.75894 5.47113L6.91133 6.08695L7.23512 5.09051L6.38746 4.47469H7.43519L7.75894 3.47824L8.0827 4.47469H9.13043L8.28277 5.09051ZM8.60656 3.17391L8.28277 2.17746L9.13043 1.56164H8.0827L7.75894 0.565195L7.43519 1.56164H6.38746L7.23512 2.17746L6.91133 3.17391L7.75894 2.55809L8.60656 3.17391Z" fill="#0052B4"/>
</svg>
