<svg width="18" height="14" viewBox="0 0 18 14" fill="none" xmlns="http://www.w3.org/2000/svg">
<path fill-rule="evenodd" clip-rule="evenodd" d="M17.25 2H0.75C0.3375 2 0 1.55 0 1C0 0.45 0.3375 0 0.75 0H17.25C17.6625 0 18 0.45 18 1C18 1.55 17.6625 2 17.25 2ZM17.25 8H0.75C0.3375 8 0 7.55 0 7C0 6.45 0.3375 6 0.75 6H17.25C17.6625 6 18 6.45 18 7C18 7.55 17.6625 8 17.25 8ZM0.75 14H17.25C17.6625 14 18 13.55 18 13C18 12.45 17.6625 12 17.25 12H0.75C0.3375 12 0 12.45 0 13C0 13.55 0.3375 14 0.75 14Z" fill="#003C62"/>
</svg>
